<?xml version="1.0" encoding="UTF-8"?>
<svg id="Layer_1" xmlns="http://www.w3.org/2000/svg" xmlns:xlink="http://www.w3.org/1999/xlink" version="1.1" viewBox="0 0 536.9 228">
  <!-- Generator: Adobe Illustrator 29.6.1, SVG Export Plug-In . SVG Version: 2.1.1 Build 9)  -->
  <defs>
    <style>
      .st0 {
        fill: url(#linear-gradient1);
      }

      .st1 {
        fill: url(#linear-gradient);
      }

      .st2 {
        fill: #173441;
      }
    </style>
    <linearGradient id="linear-gradient" x1="153.9" y1="187.6" x2="4.2" y2="59.1" gradientUnits="userSpaceOnUse">
      <stop offset=".4" stop-color="#e2603f"/>
      <stop offset="1" stop-color="#f5ae4c"/>
    </linearGradient>
    <linearGradient id="linear-gradient1" x1="306.2" y1="201.4" x2="434" y2="201.4" xlink:href="#linear-gradient"/>
  </defs>
  <path class="st1" d="M12.1,164.6l13.7-23.8h53.1c5.7,0,10.3-4.6,10.3-10.3s-4.6-10.2-10.3-10.2h-35.7c-19,0-34.4-15.4-34.4-34.4s15.4-34.4,34.4-34.4h67l-11,23.8h-56c-5.8,0-10.6,4.8-10.6,10.6s4.8,10.6,10.6,10.6h35.7c18.8,0,34.1,15.3,34.1,34.1s-15.3,34.1-34.1,34.1H12.1Z"/>
  <path class="st0" d="M370.1,221.7c-22.6,0-44.4-6.8-63-19.8l-.9-.7,17.5-20.1.7.5c13.6,8.9,29.4,13.5,45.7,13.5s32-4.7,45.7-13.5l.8-.5,17.5,20.1-.9.7c-18.6,12.9-40.3,19.8-63,19.8Z"/>
  <path class="st2" d="M427.9,163.7c-10.4,0-19.9-2.5-28.2-7.2l-.8-.5c-3.9-2.2-7.6-5-11-8.5-1.1-1.1-2.1-2.1-3.1-3.2-17.8-20.5-18.8-50.8-2.4-72.2,10.3-13.5,26.5-21.9,43.2-22.6.7,0,1.4,0,2.1,0,10.4,0,20.6,2.9,29.5,8.3,1.4.9,2.8,1.8,4.1,2.7,10.3,7.6,17.9,18.7,21.4,31.2,2.4,8.8,2.2,18.2,2,27.2v.6c0,2.4-.1,4.8-.1,7.1v27.8c0,1.8,0,3.5,0,4.8,0,1.1-.4,2.2-1.3,3-.8.8-1.8,1.3-2.9,1.3s-52.1.3-52.5.3ZM427.6,75.8c-17,0-30.7,13.8-30.7,30.7s13.8,30.7,30.7,30.7,30.7-13.8,30.7-30.7-13.8-30.7-30.7-30.7Z"/>
  <path class="st2" d="M301.6,163.1c-10.2,0-20.2-2.7-28.9-7.9-3.9-2.3-7.5-5.1-10.8-8.3h0c0,0-.3-.5-.3-.5l-.4-.2c-17.5-18.2-20.7-46.2-7.7-68.1,10.2-17.2,28.9-27.9,48.9-27.9s20.1,2.7,28.8,7.9c11.2,6.6,20.1,17.3,24.4,29.4,1.6,4.4,2.6,9.2,2.9,14.2.2,2.3.2,4.6.1,6.8-.3,7.5-.7,8.1-1.8,8.1h-63.4s.1-1.1.1-1.1c1.2-12.3,11.5-21.7,23.9-21.7h12.5s-.7-1.8-.7-1.8c-1.7-3-3.9-5.8-6.4-8.1-1.7-1.6-3.6-3-5.5-4.1-4.7-2.8-10-4.2-15.4-4.2s-9.5,1.1-13.8,3.3c-4.3,2.2-8.2,5.5-11.1,9.5-3.1,4.3-5,9.3-5.6,14.4-.4,3.6-.1,7.3.8,10.9,2,7.9,7,14.5,14,18.7,4.7,2.8,10,4.3,15.5,4.3s14.2-2.6,19.7-7.2l.5-.3h31.9s-.7,1.4-.7,1.4c-.8,1.7-1.6,3.2-2.4,4.6-10.2,17.2-29,28-49.2,28Z"/>
  <path class="st2" d="M178.1,166.2c-31.5,0-57.1-25.6-57.1-57.1s25.6-57.1,57.1-57.1,12.8,1.1,18.9,3.3l.7.2v30.2l-1.6-1.2c-5.3-3.9-11.5-5.9-18-5.9-16.8,0-30.5,13.7-30.5,30.5s13.7,30.5,30.5,30.5,29.8-12.9,30.4-29.3v-1.3c0,0,0-61.9,0-61.9v-.7s0-37.5,0-37.5h26.7v100.2c0,31.5-25.6,57.1-57.1,57.1Z"/>
  <rect class="st2" x="501.1" y="9.4" width="26.7" height="154.4"/>
</svg>