<?xml version="1.0" encoding="UTF-8"?><svg id="Layer_1" xmlns="http://www.w3.org/2000/svg" viewBox="0 0 363.3 352.73"><defs><style>.cls-1{fill:#fc3f4d;}.cls-2{fill:#fff;}.cls-3{fill:#bdea18;}.cls-4{fill:#1e1e1e;}</style></defs><g id="Layer_1-2"><path class="cls-2" d="m3.92,230.94h9.52v7.7h6.86v7.84h-6.86v14.14c0,5.46,1.68,6.58,5.39,6.58.58,0,1.17-.01,1.75-.07v8.26c-1.36.26-2.74.38-4.13.35-8.75,0-12.6-4.9-12.6-14.84v-14.42H0v-7.84h3.92v-7.7Z"/><path class="cls-2" d="m59.36,254.11v21.14h-9.59v-22.26c0-4.06-2.8-6.58-6.09-6.58-4.06,0-6.65,2.94-6.65,6.86v21.98h-9.66v-50.61h9.66v18.27c2.11-3.28,5.76-5.24,9.66-5.18,10.5,0,12.67,8.61,12.67,16.38Z"/><path class="cls-2" d="m67.48,259.78v-21.14h9.66v22.26c0,4.06,2.8,6.58,6.09,6.58,3.99,0,6.51-2.94,6.51-6.86v-21.98h9.66v36.61h-9.45v-4.27c-2.17,3.28-5.86,5.24-9.8,5.18-10.43,0-12.67-8.61-12.67-16.38Z"/><path class="cls-2" d="m112.49,224.29c3.05.04,5.5,2.55,5.46,5.6s-2.55,5.5-5.6,5.46c-3.03-.04-5.46-2.5-5.46-5.53-.02-3.03,2.41-5.51,5.44-5.53.05,0,.1,0,.16,0Zm-4.76,14.35h9.66v36.61h-9.66v-36.61Z"/><path class="cls-2" d="m123.62,269.37l5.67-5.04c2.02,2.57,5.13,4.05,8.4,3.99,2.73,0,4.48-1.19,4.48-3.29,0-5.6-17.29-3.43-17.29-16.45,0-6.79,5.81-10.85,13.3-10.85,6.93,0,10.78,3.64,12.53,6.51l-6.37,4.76c-1.51-2.14-3.96-3.44-6.58-3.5-2.24,0-3.78,1.12-3.78,2.94,0,5.81,17.36,3.01,17.36,16.1,0,7.14-6.16,11.62-14.07,11.62-7.21,0-11.69-3.64-13.65-6.79Z"/><path class="cls-2" d="m182.77,251.8l-6.79,23.45h-10.78l-10.92-36.61h10.5l6.44,25.97,7-25.97h9.1l6.93,25.97,6.51-25.97h10.5l-10.99,36.61h-10.78l-6.72-23.45Z"/><path class="cls-2" d="m221.34,224.29c3.05.04,5.5,2.55,5.46,5.6s-2.55,5.5-5.6,5.46c-3.03-.04-5.46-2.5-5.46-5.53-.02-3.03,2.41-5.51,5.44-5.53.05,0,.1,0,.16,0Zm-4.76,14.35h9.66v36.61h-9.66v-36.61Z"/><path class="cls-2" d="m266.84,254.11v21.14h-9.66v-22.26c0-4.06-2.8-6.58-6.09-6.58-3.99,0-6.51,2.94-6.51,6.86v21.98h-9.66v-36.61h9.45v4.27c2.17-3.28,5.86-5.24,9.8-5.18,10.43,0,12.67,8.61,12.67,16.38Z"/><path class="cls-2" d="m275.17,224.64h9.66v29.4l11.76-15.4h10.85l-12.88,16.59,13.86,20.02h-11.34l-12.25-18.9v18.9h-9.66v-50.61Z"/><path class="cls-2" d="m329.42,237.73c11.34,0,17.78,7.56,17.78,19.53,0,.7,0,1.4-.07,2.1h-25.76c.21,4.9,4.13,8.4,9.52,8.4,3.52.06,6.85-1.61,8.89-4.48l6.37,4.83c-1.4,2.59-6.3,8.05-15.4,8.05-11.76,0-19.25-8.12-19.25-19.11,0-11.06,7.49-19.32,17.92-19.32Zm7.98,15.33c-.03-4.13-3.39-7.46-7.52-7.43-.11,0-.21,0-.32,0-4.55,0-7.49,3.22-7.91,7.42h15.75Z"/><path class="cls-2" d="m353.64,224.64h9.66v50.61h-9.66v-50.61Z"/><path class="cls-2" d="m66.35,313.41l-9.04,26.85h-5.66l-11.38-33.8h5.59l8.84,27.82s.06-.13,9.1-27.82h5.07c8.97,27.69,9.04,27.82,9.04,27.82l8.91-27.82h5.59l-11.44,33.8h-5.65l-8.97-26.85Z"/><path class="cls-2" d="m109.06,318.74c4.29,0,7.54,1.62,8.91,3.05v-4.16c0-4.75-3.18-7.47-8.19-7.47-3.52.05-6.96,1.06-9.95,2.92l-2.08-3.77c3.74-2.37,8.06-3.65,12.48-3.71,9.23,0,12.87,5.14,12.87,12.35v22.3h-4.42l-.58-2.86c-1.76,2.02-4.62,3.71-9.17,3.71-7.41,0-12.87-4.68-12.87-11.25,0-6.44,5.4-11.12,13-11.12Zm.72,18.07c4.94,0,8.39-2.92,8.39-7.02s-3.38-6.96-8.45-6.96-8.45,2.99-8.45,6.96c0,3.9,3.32,7.02,8.52,7.02h0Z"/><path class="cls-2" d="m143.18,318.74c4.29,0,7.54,1.62,8.91,3.05v-4.16c0-4.75-3.18-7.47-8.19-7.47-3.52.05-6.96,1.06-9.95,2.92l-2.08-3.77c3.74-2.37,8.06-3.65,12.48-3.71,9.23,0,12.87,5.14,12.87,12.35v22.3h-4.42l-.59-2.86c-1.76,2.02-4.62,3.71-9.17,3.71-7.41,0-12.87-4.68-12.87-11.25,0-6.44,5.4-11.12,13-11.12Zm.72,18.07c4.94,0,8.39-2.92,8.39-7.02s-3.38-6.96-8.45-6.96-8.45,2.99-8.45,6.96c0,3.9,3.32,7.02,8.52,7.02h0Z"/><path class="cls-2" d="m181.66,310.74c-7.74,0-10.01,6.11-10.01,13.33v16.19h-5.14v-33.8h5.07v5.65c1.17-3.38,4.94-6.5,10.08-6.5v5.14Z"/><path class="cls-2" d="m188.36,293.25h5.13v18.66c2.64-4.02,7.16-6.4,11.96-6.31,9.56,0,16.12,7.41,16.12,17.81s-6.89,17.68-16.51,17.68c-4.71.06-9.13-2.27-11.77-6.17v5.33h-4.94v-47Zm16.38,43.23c6.5,0,11.57-5.13,11.57-13s-4.81-13.2-11.44-13.2-11.57,4.81-11.57,13.2c0,7.08,4.42,13,11.44,13Z"/><path class="cls-2" d="m244.52,305.6c10.21,0,17.62,7.61,17.62,17.75.26,9.54-7.26,17.48-16.79,17.74-.3,0-.59,0-.89,0-10.14,0-17.62-7.47-17.62-17.75-.26-9.54,7.26-17.48,16.79-17.74.3,0,.59,0,.89,0Zm-.06,30.81c7.28,0,12.48-5.53,12.48-13.07s-5.2-13.07-12.48-13.07-12.35,5.66-12.35,13.07c0,7.61,5.13,13.07,12.35,13.07h0Z"/><path class="cls-2" d="m284.82,310.74c-7.74,0-10.01,6.11-10.01,13.33v16.19h-5.13v-33.8h5.07v5.65c1.17-3.38,4.94-6.5,10.08-6.5v5.14Z"/><path class="cls-2" d="m295.15,345.32c3.11,1.78,6.62,2.74,10.21,2.79,6.43,0,11.9-2.67,11.9-10.2v-2.99c-2.57,3.94-7,6.28-11.7,6.17-9.68,0-16.32-7.34-16.32-17.68s6.7-17.81,16.25-17.81c4.8-.08,9.31,2.3,11.96,6.31v-5.46h4.94v29.12c0,12.8-7.21,17.16-16.97,17.16-4.25-.07-8.42-1.23-12.09-3.38l1.82-4.03Zm10.73-35.04c-6.57,0-11.44,5.39-11.44,13.13s5.07,13,11.57,13c6.96,0,11.44-5.72,11.44-13,0-8.19-5.13-13.13-11.57-13.13Z"/><path class="cls-4" d="m181.65,0l-101.05,58.34v116.96h202.1V58.34L181.65,0Zm90.26,164.51h-84.86v-44.72l84.86-49v93.71Zm-95.65,0h-84.86v-93.71l84.86,49v44.72Zm5.4-54.06l-84.86-49L181.65,12.46l84.86,49-84.86,49Z"/><polygon class="cls-3" points="271.91 70.8 187.04 119.8 187.04 164.51 271.91 164.51 271.91 70.8"/><polygon class="cls-1" points="91.39 164.51 176.25 164.51 176.25 119.8 91.39 70.8 91.39 164.51"/><polygon class="cls-2" points="96.79 61.46 181.65 110.45 266.51 61.46 181.65 12.46 96.79 61.46"/></g></svg>