<?xml version="1.0" encoding="utf-8"?>
<!-- Generator: Adobe Illustrator 27.2.0, SVG Export Plug-In . SVG Version: 6.00 Build 0)  -->
<svg version="1.1" id="Layer_1" xmlns="http://www.w3.org/2000/svg" xmlns:xlink="http://www.w3.org/1999/xlink" x="0px" y="0px"
	 viewBox="0 0 363.3 352.4" style="enable-background:new 0 0 363.3 352.4;" xml:space="preserve">
<style type="text/css">
	.st0{fill:#1E1E1E;}
	.st1{fill:#BDEA18;}
	.st2{fill:#FC3F4D;}
	.st3{fill:#FFFFFF;}
</style>
<g id="Laag_2">
	<g id="Layer_1_00000011718558024984716450000013274231128774308005_">
		<path class="st0" d="M181.7,0l-101,58.3v117h202.1v-117L181.7,0z M271.9,164.5h-84.9v-44.7l84.9-49L271.9,164.5z M176.3,164.5
			H91.4V70.8l84.9,49L176.3,164.5z M181.7,110.5l-84.9-49l84.9-49l84.9,49L181.7,110.5z"/>
		<polygon class="st1" points="271.9,70.8 187.1,119.8 187.1,164.5 271.9,164.5 		"/>
		<polygon class="st2" points="91.4,164.5 176.3,164.5 176.3,119.8 91.4,70.8 		"/>
		<polygon class="st3" points="96.8,61.5 181.7,110.5 266.5,61.5 181.7,12.5 		"/>
		<path class="st3" d="M3.9,231h9.5v7.7h6.9v7.8h-6.9v14.1c0,5.5,1.7,6.6,5.4,6.6c0.6,0,1.2,0,1.8-0.1v8.3c-1.4,0.3-2.7,0.4-4.1,0.4
			c-8.8,0-12.6-4.9-12.6-14.8v-14.4H0v-7.8h3.9V231z"/>
		<path class="st3" d="M59.4,254.2v21.1h-9.6V253c0-4.1-2.8-6.6-6.1-6.6c-4.1,0-6.7,2.9-6.7,6.9v22h-9.7v-50.6H37V243
			c2.1-3.3,5.8-5.2,9.7-5.2C57.2,237.8,59.4,246.4,59.4,254.2z"/>
		<path class="st3" d="M67.5,259.8v-21.1h9.7V261c0,4.1,2.8,6.6,6.1,6.6c4,0,6.5-2.9,6.5-6.9v-22h9.7v36.6H90V271
			c-2.2,3.3-5.9,5.2-9.8,5.2C69.7,276.2,67.5,267.6,67.5,259.8z"/>
		<path class="st3" d="M112.5,224.3c3.1,0,5.5,2.5,5.5,5.6c0,3.1-2.5,5.5-5.6,5.5c-3,0-5.5-2.5-5.5-5.5c0-3,2.4-5.5,5.4-5.5
			C112.4,224.3,112.4,224.3,112.5,224.3z M107.7,238.7h9.7v36.6h-9.7V238.7z"/>
		<path class="st3" d="M123.6,269.4l5.7-5c2,2.6,5.1,4,8.4,4c2.7,0,4.5-1.2,4.5-3.3c0-5.6-17.3-3.4-17.3-16.5
			c0-6.8,5.8-10.9,13.3-10.9c6.9,0,10.8,3.6,12.5,6.5l-6.4,4.8c-1.5-2.1-4-3.4-6.6-3.5c-2.2,0-3.8,1.1-3.8,2.9
			c0,5.8,17.4,3,17.4,16.1c0,7.1-6.2,11.6-14.1,11.6C130.1,276.2,125.6,272.6,123.6,269.4z"/>
		<path class="st3" d="M182.8,251.9l-6.8,23.5h-10.8l-10.9-36.6h10.5l6.4,26l7-26h9.1l6.9,26l6.5-26h10.5l-11,36.6h-10.8
			L182.8,251.9z"/>
		<path class="st3" d="M221.3,224.3c3.1,0,5.5,2.5,5.5,5.6c0,3.1-2.5,5.5-5.6,5.5c-3,0-5.5-2.5-5.5-5.5c0-3,2.4-5.5,5.4-5.5
			C221.2,224.3,221.3,224.3,221.3,224.3z M216.6,238.7h9.7v36.6h-9.7V238.7z"/>
		<path class="st3" d="M266.8,254.2v21.1h-9.7V253c0-4.1-2.8-6.6-6.1-6.6c-4,0-6.5,2.9-6.5,6.9v22h-9.7v-36.6h9.5v4.3
			c2.2-3.3,5.9-5.2,9.8-5.2C264.6,237.8,266.8,246.4,266.8,254.2z"/>
		<path class="st3" d="M275.2,224.7h9.7v29.4l11.8-15.4h10.9l-12.9,16.6l13.9,20h-11.3l-12.3-18.9v18.9h-9.7L275.2,224.7z"/>
		<path class="st3" d="M329.4,237.8c11.3,0,17.8,7.6,17.8,19.5c0,0.7,0,1.4-0.1,2.1h-25.8c0.2,4.9,4.1,8.4,9.5,8.4
			c3.5,0.1,6.8-1.6,8.9-4.5l6.4,4.8c-1.4,2.6-6.3,8.1-15.4,8.1c-11.8,0-19.3-8.1-19.3-19.1C311.5,246,319,237.8,329.4,237.8z
			 M337.4,253.1c0-4.1-3.4-7.5-7.5-7.4c-0.1,0-0.2,0-0.3,0c-4.5,0-7.5,3.2-7.9,7.4H337.4z"/>
		<path class="st3" d="M353.6,224.7h9.7v50.6h-9.7V224.7z"/>
		<path class="st3" d="M63.8,306.4h4.9v5.3c2.6-3.9,7.1-6.2,11.8-6.2c9.6,0,16.5,7.3,16.5,17.7c0,10.5-6.6,17.8-16.1,17.8
			c-4.8,0.1-9.3-2.3-12-6.3v17.6h-5.1V306.4z M80.3,336.4c6.6,0,11.4-5.4,11.4-13.1c0-7.9-5.1-13-11.6-13c-7,0-11.4,5.9-11.4,13
			C68.7,331.6,73.9,336.4,80.3,336.4z"/>
		<path class="st3" d="M104.6,293.3h5.1v47h-5.1V293.3z"/>
		<path class="st3" d="M130.4,318.7c4.3,0,7.5,1.6,8.9,3.1v-4.2c0-4.7-3.2-7.5-8.2-7.5c-3.5,0.1-7,1.1-9.9,2.9l-2.1-3.8
			c3.7-2.4,8.1-3.7,12.5-3.7c9.2,0,12.9,5.1,12.9,12.4v22.3H140l-0.6-2.9c-1.8,2-4.6,3.7-9.2,3.7c-7.4,0-12.9-4.7-12.9-11.2
			C117.4,323.4,122.8,318.7,130.4,318.7z M131.1,336.8c4.9,0,8.4-2.9,8.4-7c0-4.2-3.4-7-8.4-7c-5.1,0-8.5,3-8.5,7
			C122.6,333.7,125.9,336.8,131.1,336.8L131.1,336.8z"/>
		<path class="st3" d="M154.1,299.4h5.1v7.1h7.4v4.4h-7.4v17.4c0,6.3,1.8,7.8,6.2,7.8c0.6,0,1.4-0.1,1.4-0.1v4.5
			c-1,0.1-2.1,0.2-3.1,0.2c-6.8,0-9.7-4.4-9.7-12v-17.9h-4v-4.4h4L154.1,299.4z"/>
		<path class="st3" d="M174.9,310.8h-3.8v-4.4h3.8v-1.8c0-8.5,5.1-11.2,10.6-11.2c0.7,0,1.4,0,2.1,0.1v4.5c-0.5-0.1-1.1-0.1-1.6-0.1
			c-3.8,0-5.9,2.1-5.9,6.8v1.8h7.2v4.4h-7.2v29.4h-5.2L174.9,310.8z"/>
		<path class="st3" d="M208.7,305.6c10.2,0,17.6,7.6,17.6,17.7c0.3,9.5-7.3,17.5-16.8,17.7c-0.3,0-0.6,0-0.9,0
			c-10.1,0-17.6-7.5-17.6-17.7c-0.3-9.5,7.3-17.5,16.8-17.7C208.1,305.6,208.4,305.6,208.7,305.6z M208.6,336.4
			c7.3,0,12.5-5.5,12.5-13.1c0-7.5-5.2-13.1-12.5-13.1s-12.4,5.7-12.4,13.1C196.3,331,201.4,336.4,208.6,336.4z"/>
		<path class="st3" d="M249,310.7c-7.7,0-10,6.1-10,13.3v16.2h-5.1v-33.8h5.1v5.7c1.2-3.4,4.9-6.5,10.1-6.5L249,310.7z"/>
		<path class="st3" d="M302.9,340.3h-5.1v-20.3c0-6.4-2.6-9.6-7.6-9.6c-4.7,0-8.3,3.4-8.3,9.7v20.3h-5.1v-21.3c0-5.4-3-8.6-7.7-8.6
			c-4.5,0-8.2,3.8-8.2,9.5v20.5h-5.1v-33.8h5.1v4.9c1.8-3.6,5.5-5.8,9.6-5.7c5.1,0,8.6,2.5,10.2,6.2c2-4,6-6.2,10.9-6.2
			c7.5,0,11.6,5.3,11.6,12.7L302.9,340.3z"/>
	</g>
</g>
</svg>
