<svg width="120" height="40" viewBox="0 0 120 40" xmlns="http://www.w3.org/2000/svg">
  <defs>
    <linearGradient id="orangeGradient" x1="0%" y1="0%" x2="0%" y2="100%">
      <stop offset="0%" style="stop-color:#FF8C42;stop-opacity:1" />
      <stop offset="100%" style="stop-color:#E67E22;stop-opacity:1" />
    </linearGradient>
  </defs>
  
  <!-- Letter "s" with orange gradient -->
  <path d="M8 12C8 8.5 10.5 6 14 6C17.5 6 20 8.5 20 12C20 15.5 17.5 18 14 18C10.5 18 8 15.5 8 12Z" fill="url(#orangeGradient)"/>
  <path d="M8 12C8 15.5 10.5 18 14 18C17.5 18 20 15.5 20 12C20 8.5 17.5 6 14 6C10.5 6 8 8.5 8 12Z" fill="url(#orangeGradient)"/>
  
  <!-- Letter "d" in teal -->
  <path d="M25 6H30C32.5 6 34 7.5 34 10V30C34 32.5 32.5 34 30 34H25V6Z" fill="#2C5F5F"/>
  <path d="M25 6H30C32.5 6 34 7.5 34 10V30C34 32.5 32.5 34 30 34H25V6Z" fill="#2C5F5F"/>
  
  <!-- Letter "e" with curved top bar -->
  <path d="M38 6H43C45.5 6 47 7.5 47 10V30C47 32.5 45.5 34 43 34H38V6Z" fill="#2C5F5F"/>
  <path d="M38 10H47" stroke="#2C5F5F" stroke-width="2" fill="none"/>
  <!-- Curved top bar for "e" -->
  <path d="M38 10Q42.5 8 47 10" stroke="#2C5F5F" stroke-width="2" fill="none"/>
  
  <!-- Letter "a" -->
  <path d="M50 34V10H55C57.5 10 59 11.5 59 14C59 16.5 57.5 18 55 18H52V34H50Z" fill="#2C5F5F"/>
  <path d="M52 18H55C57.5 18 59 19.5 59 22C59 24.5 57.5 26 55 26H52V18Z" fill="#2C5F5F"/>
  
  <!-- Letter "l" -->
  <path d="M62 6H64V34H62V6Z" fill="#2C5F5F"/>
</svg> 