<svg xmlns="http://www.w3.org/2000/svg" viewBox="0 0 301.7012 341.0953"><defs><style>.cls-1{fill:#1e1e1e;}.cls-2{fill:#bdea18;}.cls-3{fill:#fc3f4d;}.cls-4{fill:#fff;}</style></defs><g id="Laag_2" data-name="Laag 2"><g id="Layer_1" data-name="Layer 1"><path class="cls-1" d="M151.9256,0,50.8753,58.3413V175.3044h202.1V58.3413Zm90.259,164.5133H157.3211V119.7977l84.8635-48.9959Zm-95.6546,0H61.6665V70.8018L146.53,119.7977Zm5.3956-54.0609L67.0621,61.4564,151.9256,12.46l84.8634,48.996Z"/><polygon class="cls-2" points="242.185 70.802 157.321 119.798 157.321 164.513 242.185 164.513 242.185 70.802"/><polygon class="cls-3" points="61.666 164.513 146.53 164.513 146.53 119.798 61.666 70.802 61.666 164.513"/><polygon class="cls-4" points="67.062 61.456 151.926 110.452 236.789 61.456 151.926 12.46 67.062 61.456"/><path class="cls-1" d="M0,269.43l5.6709-5.04a10.444,10.444,0,0,0,8.4,3.99c2.73,0,4.48-1.19,4.48-3.29,0-5.6006-17.2911-3.4307-17.2911-16.4522,0-6.791,5.8106-10.8515,13.3008-10.8515,6.9307,0,10.7813,3.6406,12.5313,6.5107l-6.37,4.7607a8.2755,8.2755,0,0,0-6.5811-3.5c-2.24,0-3.78,1.12-3.78,2.9405,0,5.81,17.3623,3.01,17.3623,16.1015,0,7.1407-6.1611,11.6211-14.0722,11.6211C6.4414,276.2213,1.9609,272.5807,0,269.43Z"/><path class="cls-1" d="M65.9434,254.1686v21.1426H56.3525V253.0485c0-4.0606-2.8007-6.58-6.0908-6.58-4.06,0-6.65,2.94-6.65,6.86v21.9825H33.95V224.6959h9.6611v18.2715a11.2867,11.2867,0,0,1,9.6612-5.1806C63.7734,237.7868,65.9434,246.3981,65.9434,254.1686Z"/><path class="cls-1" d="M91.9824,237.7868c11.2012,0,19.7412,8.2617,19.7412,19.3222s-8.2607,19.1123-19.7412,19.1123c-11.4111,0-19.6728-8.0508-19.6728-19.1123C72.31,245.9782,80.8506,237.7868,91.9824,237.7868Zm0,29.8935c5.8106,0,10.0811-4.3408,10.0811-10.5713s-4.27-10.7812-10.0811-10.7812-10.0117,4.48-10.0117,10.7812C81.9707,263.34,86.2412,267.68,91.9824,267.68Z"/><path class="cls-1" d="M118.2988,238.6969H127.4v3.8506a13.9827,13.9827,0,0,1,10.8506-4.7607c10.501,0,17.9219,7.9814,17.9219,19.1826,0,11.3408-6.86,19.2519-17.3614,19.2519a13.9606,13.9606,0,0,1-10.8515-4.69V288.403h-9.6612ZM137.0615,267.68c5.6006,0,9.3809-4.41,9.3809-10.7812,0-6.5108-3.9209-10.5713-9.3809-10.5713-5.8808,0-9.3818,4.7607-9.3818,10.5713C127.68,263.76,131.74,267.68,137.0615,267.68Z"/><path class="cls-1" d="M162.8184,238.6969H171.92v3.8506a13.9827,13.9827,0,0,1,10.8506-4.7607c10.501,0,17.9219,7.9814,17.9219,19.1826,0,11.3408-6.86,19.2519-17.3613,19.2519a13.9609,13.9609,0,0,1-10.8516-4.69V288.403h-9.6611ZM181.5811,267.68c5.6005,0,9.3808-4.41,9.3808-10.7812,0-6.5108-3.9209-10.5713-9.3808-10.5713-5.8809,0-9.3819,4.7607-9.3819,10.5713C172.1992,263.76,176.26,267.68,181.5811,267.68Z"/><path class="cls-1" d="M212.0986,224.3453a5.5312,5.5312,0,1,1-5.6006,5.5313A5.4882,5.4882,0,0,1,212.0986,224.3453Zm-4.7607,14.3516h9.6611v36.6143h-9.6611Z"/><path class="cls-1" d="M257.6006,254.1686v21.1426H247.94V253.0485c0-4.0606-2.8008-6.58-6.0909-6.58-3.99,0-6.5107,2.94-6.5107,6.86v21.9825h-9.6611V238.6969h9.4511v4.27a11.5531,11.5531,0,0,1,9.8008-5.1806C255.36,237.7868,257.6006,246.3981,257.6006,254.1686Z"/><path class="cls-1" d="M271.5273,277.9713a24.0382,24.0382,0,0,0,10.4317,2.5205c5.25,0,10.081-1.61,10.081-7.2812v-1.68a13.6279,13.6279,0,0,1-10.7109,4.69c-10.5713,0-17.502-7.9111-17.502-19.1816s7.4209-19.2529,17.8516-19.2529A13.9766,13.9766,0,0,1,292.6,242.5475v-3.8506h9.1016V270.691c0,13.6514-8.8916,18.0616-19.6729,18.0616a29.4957,29.4957,0,0,1-13.4414-3.36Zm11.3418-31.6435c-5.4609,0-9.3115,4.2011-9.3115,10.6416s3.9209,10.7109,9.3809,10.7109c5.6006,0,9.3818-4.2,9.3818-10.7109C292.32,250.7389,288.5391,246.3278,282.8691,246.3278Z"/><path class="cls-1" d="M62.17,331.5407a9.0016,9.0016,0,0,0,8.4507,5.2c3.38,0,6.24-1.95,6.24-5.3956,0-7.8007-16.9658-5.1347-16.9658-16.5761,0-5.72,4.7451-9.1651,10.8555-9.1651,6.3052,0,9.5552,3.9659,10.4653,6.5l-3.77,2.1455a7.2178,7.2178,0,0,0-7.0205-4.3554c-3.12,0-5.59,1.7558-5.59,4.6806,0,7.6055,17.03,4.7452,17.03,16.5108,0,5.9795-4.94,10.01-11.5053,10.01-7.085,0-10.2706-4.03-11.7652-7.2148Z"/><path class="cls-1" d="M103.38,305.6041c9.9453,0,16.0556,7.15,16.0556,17.2911,0,.1943,0,.91-.0649,1.56H92.2646c.0655,7.541,5.1353,12.0908,12.1558,12.0908a12.3749,12.3749,0,0,0,10.53-5.2656l3.38,2.4707c-1.8853,3.1846-6.3057,7.3447-13.9756,7.3447C94.085,341.0953,87,333.8805,87,323.48,87,312.6891,94.41,305.6041,103.38,305.6041ZM114.1709,320.62c-.3252-7.02-5.2-10.5957-10.7905-10.5957A10.9339,10.9339,0,0,0,92.5249,320.62Z"/><path class="cls-1" d="M152.0649,314.6393a14.1278,14.1278,0,0,0-10.01-4.29c-7.0855,0-12.0908,5.6552-12.0908,13.0009,0,7.28,5.2656,13.0655,12.2207,13.0655A14.1427,14.1427,0,0,0,152.26,331.93l1.56,4.3555a16.7759,16.7759,0,0,1-11.831,4.81c-10.0752,0-17.3555-7.7353-17.3555-17.7451s7.4756-17.7461,17.29-17.7461a17.0139,17.0139,0,0,1,11.896,4.6153Z"/><path class="cls-1" d="M160.8389,327.5748V306.4489h5.1347V327.77c0,5.3955,3.4453,8.6455,7.9952,8.6455,5.2,0,8.7753-3.835,8.7753-9.4258v-20.541h5.2v33.8017H182.81v-4.875a11.3631,11.3631,0,0,1-10.0108,5.72C164.9336,341.0953,160.8389,335.2457,160.8389,327.5748Z"/><path class="cls-1" d="M212.5791,310.74c-7.7353,0-10.0107,6.1094-10.0107,13.3252v16.1855h-5.1348V306.4489h5.07v5.6552c1.17-3.38,4.94-6.5,10.0752-6.5Z"/><path class="cls-1" d="M232.1445,305.6041c9.9453,0,16.0557,7.15,16.0557,17.2911,0,.1943,0,.91-.0654,1.56H221.0293c.0645,7.541,5.1348,12.0908,12.1553,12.0908a12.374,12.374,0,0,0,10.53-5.2656l3.38,2.4707c-1.8847,3.1846-6.3047,7.3447-13.9746,7.3447-10.27,0-17.3564-7.2148-17.3564-17.6152C215.7637,312.6891,223.1738,305.6041,232.1445,305.6041Zm10.79,15.0157c-.3242-7.02-5.2-10.5957-10.79-10.5957A10.9342,10.9342,0,0,0,221.2891,320.62Z"/></g></g></svg>